<svg width="106" height="62" viewBox="0 0 106 62" fill="none" xmlns="http://www.w3.org/2000/svg">
<path fill-rule="evenodd" clip-rule="evenodd" d="M5.83 29.38H10.517V26.516H5.831V23.621C5.831 21.759 6.669 21.034 8.135 21.034C9.183 21.034 9.951 21.344 10.789 21.897V18.759C9.916 18.24 8.973 18 7.751 18C4.504 18 2.41 19.862 2.41 23.655V26.517H0V29.379H2.41V41.793H5.83V29.38ZM25.25 26.517H21.83V39.103C20.922 39.241 19.944 39.31 19.176 39.31C16.906 39.31 15.51 38.483 15.51 36.207V26.517H12.088V36.448C12.088 40.724 14.811 42.138 19.246 42.138C21.061 42.138 23.436 41.897 25.251 41.448V26.518L25.25 26.517ZM32.036 18.345H28.579V41.793H32.036V18.345ZM38.786 18.345H35.329V41.793H38.786V18.345ZM41.381 40.897C42.534 41.655 44.349 42.137 46.165 42.137C49.517 42.137 51.995 40.69 51.995 37.483C51.995 34.724 50.46 33.413 46.933 32.655C45.153 32.172 44.489 31.655 44.489 30.655C44.489 29.655 45.292 28.931 46.793 28.931C48.434 28.931 49.761 29.517 51.123 30.483V27.345C49.831 26.552 48.434 26.172 46.689 26.172C43.546 26.172 41.172 27.69 41.172 30.793C41.172 33.448 42.534 34.724 45.746 35.448C47.736 35.965 48.644 36.414 48.644 37.655C48.644 38.862 47.631 39.379 46.095 39.379C44.524 39.379 42.813 38.724 41.381 37.655V40.897V40.897ZM52.182 29.379H54.522V37.414C54.522 40.897 56.652 42.138 59.165 42.138C60.632 42.138 61.889 41.828 62.901 41.31V38.241C61.958 38.793 61.085 39.103 60.073 39.103C58.746 39.103 57.943 38.483 57.943 36.655V29.38H62.343V26.517H57.943V22.793H54.521V26.517H52.182V29.379V29.379ZM63.472 34.172C63.472 38.897 66.823 42.138 71.432 42.138C76.076 42.138 79.428 38.897 79.428 34.172C79.428 29.414 76.076 26.172 71.432 26.172C66.823 26.172 63.472 29.414 63.472 34.172ZM75.936 34.172C75.936 37.242 74.086 39.207 71.432 39.207C68.848 39.207 66.963 37.241 66.963 34.172C66.963 31.069 68.848 29.103 71.433 29.103C74.086 29.103 75.936 31.069 75.936 34.173V34.172ZM85.026 29.965C85.8484 29.6399 86.7257 29.4763 87.61 29.483C88.169 29.483 89.253 29.641 89.253 29.641L87.997 26.284C87.997 26.284 87.783 26.276 87.61 26.276C85.41 26.276 83.245 26.862 81.57 27.793V41.793H85.026V29.966V29.965ZM93.592 26.517H89.891L96.281 42.483L94.115 48H97.502L105.881 26.517H102.32L97.99 38.552L93.591 26.517H93.592Z" fill="black"/>
<path d="M7.76105 13V6.796H6.05705V10.048C6.05705 10.68 5.95305 11.136 5.74505 11.416C5.53705 11.688 5.20105 11.824 4.73705 11.824C4.32905 11.824 4.04505 11.7 3.88505 11.452C3.72505 11.196 3.64505 10.812 3.64505 10.3V6.796H1.94105V10.612C1.94105 10.996 1.97305 11.348 2.03705 11.668C2.10905 11.98 2.22905 12.248 2.39705 12.472C2.56505 12.688 2.79305 12.856 3.08105 12.976C3.37705 13.096 3.75305 13.156 4.20905 13.156C4.56905 13.156 4.92105 13.076 5.26505 12.916C5.60905 12.756 5.88905 12.496 6.10505 12.136H6.14105V13H7.76105ZM8.93433 6.796V13H10.6383V9.748C10.6383 9.116 10.7423 8.664 10.9503 8.392C11.1583 8.112 11.4943 7.972 11.9583 7.972C12.3663 7.972 12.6503 8.1 12.8103 8.356C12.9703 8.604 13.0503 8.984 13.0503 9.496V13H14.7543V9.184C14.7543 8.8 14.7183 8.452 14.6463 8.14C14.5823 7.82 14.4663 7.552 14.2983 7.336C14.1303 7.112 13.8983 6.94 13.6023 6.82C13.3143 6.692 12.9423 6.628 12.4863 6.628C12.1263 6.628 11.7743 6.712 11.4303 6.88C11.0863 7.04 10.8063 7.3 10.5903 7.66H10.5543V6.796H8.93433ZM17.4396 9.904C17.4396 9.656 17.4636 9.412 17.5116 9.172C17.5596 8.932 17.6396 8.72 17.7516 8.536C17.8716 8.352 18.0276 8.204 18.2196 8.092C18.4116 7.972 18.6516 7.912 18.9396 7.912C19.2276 7.912 19.4676 7.972 19.6596 8.092C19.8596 8.204 20.0156 8.352 20.1276 8.536C20.2476 8.72 20.3316 8.932 20.3796 9.172C20.4276 9.412 20.4516 9.656 20.4516 9.904C20.4516 10.152 20.4276 10.396 20.3796 10.636C20.3316 10.868 20.2476 11.08 20.1276 11.272C20.0156 11.456 19.8596 11.604 19.6596 11.716C19.4676 11.828 19.2276 11.884 18.9396 11.884C18.6516 11.884 18.4116 11.828 18.2196 11.716C18.0276 11.604 17.8716 11.456 17.7516 11.272C17.6396 11.08 17.5596 10.868 17.5116 10.636C17.4636 10.396 17.4396 10.152 17.4396 9.904ZM15.7356 9.904C15.7356 10.4 15.8116 10.848 15.9636 11.248C16.1156 11.648 16.3316 11.992 16.6116 12.28C16.8916 12.56 17.2276 12.776 17.6196 12.928C18.0116 13.08 18.4516 13.156 18.9396 13.156C19.4276 13.156 19.8676 13.08 20.2596 12.928C20.6596 12.776 20.9996 12.56 21.2796 12.28C21.5596 11.992 21.7756 11.648 21.9276 11.248C22.0796 10.848 22.1556 10.4 22.1556 9.904C22.1556 9.408 22.0796 8.96 21.9276 8.56C21.7756 8.152 21.5596 7.808 21.2796 7.528C20.9996 7.24 20.6596 7.02 20.2596 6.868C19.8676 6.708 19.4276 6.628 18.9396 6.628C18.4516 6.628 18.0116 6.708 17.6196 6.868C17.2276 7.02 16.8916 7.24 16.6116 7.528C16.3316 7.808 16.1156 8.152 15.9636 8.56C15.8116 8.96 15.7356 9.408 15.7356 9.904ZM27.1515 7.936H25.2195V13H23.5155V7.936H22.4955V6.796H23.5155V6.316C23.5155 5.764 23.6875 5.312 24.0315 4.96C24.3755 4.608 24.8955 4.432 25.5915 4.432C25.7435 4.432 25.8955 4.44 26.0475 4.456C26.1995 4.464 26.3475 4.472 26.4915 4.48V5.752C26.2835 5.728 26.0755 5.716 25.8675 5.716C25.6355 5.716 25.4675 5.772 25.3635 5.884C25.2675 5.988 25.2195 6.168 25.2195 6.424V6.796H27.1515V6.316C27.1515 5.764 27.3235 5.312 27.6675 4.96C28.0115 4.608 28.5315 4.432 29.2275 4.432C29.3795 4.432 29.5315 4.44 29.6835 4.456C29.8355 4.464 29.9835 4.472 30.1275 4.48V5.752C29.9195 5.728 29.7115 5.716 29.5035 5.716C29.2715 5.716 29.1035 5.772 28.9995 5.884C28.9035 5.988 28.8555 6.168 28.8555 6.424V6.796H30.0315V7.936H28.8555V13H27.1515V7.936ZM32.5275 5.836H30.8235V4.432H32.5275V5.836ZM30.8235 6.796H32.5275V13H30.8235V6.796ZM37.9702 8.98H39.6382C39.6142 8.58 39.5182 8.236 39.3502 7.948C39.1822 7.652 38.9622 7.408 38.6902 7.216C38.4262 7.016 38.1222 6.868 37.7782 6.772C37.4422 6.676 37.0902 6.628 36.7222 6.628C36.2182 6.628 35.7702 6.712 35.3782 6.88C34.9862 7.048 34.6542 7.284 34.3822 7.588C34.1102 7.884 33.9022 8.24 33.7582 8.656C33.6222 9.064 33.5542 9.508 33.5542 9.988C33.5542 10.452 33.6302 10.88 33.7822 11.272C33.9342 11.656 34.1462 11.988 34.4182 12.268C34.6902 12.548 35.0182 12.768 35.4022 12.928C35.7942 13.08 36.2222 13.156 36.6862 13.156C37.5102 13.156 38.1862 12.94 38.7142 12.508C39.2422 12.076 39.5622 11.448 39.6742 10.624H38.0302C37.9742 11.008 37.8342 11.316 37.6102 11.548C37.3942 11.772 37.0822 11.884 36.6742 11.884C36.4102 11.884 36.1862 11.824 36.0022 11.704C35.8182 11.584 35.6702 11.432 35.5582 11.248C35.4542 11.056 35.3782 10.844 35.3302 10.612C35.2822 10.38 35.2582 10.152 35.2582 9.928C35.2582 9.696 35.2822 9.464 35.3302 9.232C35.3782 8.992 35.4582 8.776 35.5702 8.584C35.6902 8.384 35.8422 8.224 36.0262 8.104C36.2102 7.976 36.4382 7.912 36.7102 7.912C37.4382 7.912 37.8582 8.268 37.9702 8.98ZM42.2688 5.836V4.432H40.5648V5.836H42.2688ZM40.5648 6.796V13H42.2688V6.796H40.5648ZM43.4186 8.704C43.4426 8.304 43.5426 7.972 43.7186 7.708C43.8946 7.444 44.1186 7.232 44.3906 7.072C44.6626 6.912 44.9666 6.8 45.3026 6.736C45.6466 6.664 45.9906 6.628 46.3346 6.628C46.6466 6.628 46.9626 6.652 47.2826 6.7C47.6026 6.74 47.8946 6.824 48.1586 6.952C48.4226 7.08 48.6386 7.26 48.8066 7.492C48.9746 7.716 49.0586 8.016 49.0586 8.392V11.62C49.0586 11.9 49.0746 12.168 49.1066 12.424C49.1386 12.68 49.1946 12.872 49.2746 13H47.5466C47.5146 12.904 47.4866 12.808 47.4626 12.712C47.4466 12.608 47.4346 12.504 47.4266 12.4C47.1546 12.68 46.8346 12.876 46.4666 12.988C46.0986 13.1 45.7226 13.156 45.3386 13.156C45.0426 13.156 44.7666 13.12 44.5106 13.048C44.2546 12.976 44.0306 12.864 43.8386 12.712C43.6466 12.56 43.4946 12.368 43.3826 12.136C43.2786 11.904 43.2266 11.628 43.2266 11.308C43.2266 10.956 43.2866 10.668 43.4066 10.444C43.5346 10.212 43.6946 10.028 43.8866 9.892C44.0866 9.756 44.3106 9.656 44.5586 9.592C44.8146 9.52 45.0706 9.464 45.3266 9.424C45.5826 9.384 45.8346 9.352 46.0826 9.328C46.3306 9.304 46.5506 9.268 46.7426 9.22C46.9346 9.172 47.0866 9.104 47.1986 9.016C47.3106 8.92 47.3626 8.784 47.3546 8.608C47.3546 8.424 47.3226 8.28 47.2586 8.176C47.2026 8.064 47.1226 7.98 47.0186 7.924C46.9226 7.86 46.8066 7.82 46.6706 7.804C46.5426 7.78 46.4026 7.768 46.2506 7.768C45.9146 7.768 45.6506 7.84 45.4586 7.984C45.2666 8.128 45.1546 8.368 45.1226 8.704H43.4186ZM47.3546 9.964C47.2826 10.028 47.1906 10.08 47.0786 10.12C46.9746 10.152 46.8586 10.18 46.7306 10.204C46.6106 10.228 46.4826 10.248 46.3466 10.264C46.2106 10.28 46.0746 10.3 45.9386 10.324C45.8106 10.348 45.6826 10.38 45.5546 10.42C45.4346 10.46 45.3266 10.516 45.2306 10.588C45.1426 10.652 45.0706 10.736 45.0146 10.84C44.9586 10.944 44.9306 11.076 44.9306 11.236C44.9306 11.388 44.9586 11.516 45.0146 11.62C45.0706 11.724 45.1466 11.808 45.2426 11.872C45.3386 11.928 45.4506 11.968 45.5786 11.992C45.7066 12.016 45.8386 12.028 45.9746 12.028C46.3106 12.028 46.5706 11.972 46.7546 11.86C46.9386 11.748 47.0746 11.616 47.1626 11.464C47.2506 11.304 47.3026 11.144 47.3186 10.984C47.3426 10.824 47.3546 10.696 47.3546 10.6V9.964ZM50.3092 4.432V13H52.0132V4.432H50.3092Z" fill="black"/>
<path d="M5.872 54.98H7.54C7.516 54.58 7.42 54.236 7.252 53.948C7.084 53.652 6.864 53.408 6.592 53.216C6.328 53.016 6.024 52.868 5.68 52.772C5.344 52.676 4.992 52.628 4.624 52.628C4.12 52.628 3.672 52.712 3.28 52.88C2.888 53.048 2.556 53.284 2.284 53.588C2.012 53.884 1.804 54.24 1.66 54.656C1.524 55.064 1.456 55.508 1.456 55.988C1.456 56.452 1.532 56.88 1.684 57.272C1.836 57.656 2.048 57.988 2.32 58.268C2.592 58.548 2.92 58.768 3.304 58.928C3.696 59.08 4.124 59.156 4.588 59.156C5.412 59.156 6.088 58.94 6.616 58.508C7.144 58.076 7.464 57.448 7.576 56.624H5.932C5.876 57.008 5.736 57.316 5.512 57.548C5.296 57.772 4.984 57.884 4.576 57.884C4.312 57.884 4.088 57.824 3.904 57.704C3.72 57.584 3.572 57.432 3.46 57.248C3.356 57.056 3.28 56.844 3.232 56.612C3.184 56.38 3.16 56.152 3.16 55.928C3.16 55.696 3.184 55.464 3.232 55.232C3.28 54.992 3.36 54.776 3.472 54.584C3.592 54.384 3.744 54.224 3.928 54.104C4.112 53.976 4.34 53.912 4.612 53.912C5.34 53.912 5.76 54.268 5.872 54.98ZM9.73863 56.984H8.11863C8.13463 57.4 8.22663 57.748 8.39463 58.028C8.57063 58.3 8.79063 58.52 9.05463 58.688C9.32663 58.856 9.63463 58.976 9.97863 59.048C10.3226 59.12 10.6746 59.156 11.0346 59.156C11.3866 59.156 11.7306 59.12 12.0666 59.048C12.4106 58.984 12.7146 58.868 12.9786 58.7C13.2426 58.532 13.4546 58.312 13.6146 58.04C13.7826 57.76 13.8666 57.416 13.8666 57.008C13.8666 56.72 13.8106 56.48 13.6986 56.288C13.5866 56.088 13.4386 55.924 13.2546 55.796C13.0706 55.66 12.8586 55.552 12.6186 55.472C12.3866 55.392 12.1466 55.324 11.8986 55.268C11.6586 55.212 11.4226 55.16 11.1906 55.112C10.9586 55.064 10.7506 55.012 10.5666 54.956C10.3906 54.892 10.2466 54.812 10.1346 54.716C10.0226 54.62 9.96663 54.496 9.96663 54.344C9.96663 54.216 9.99863 54.116 10.0626 54.044C10.1266 53.964 10.2026 53.904 10.2906 53.864C10.3866 53.824 10.4906 53.8 10.6026 53.792C10.7146 53.776 10.8186 53.768 10.9146 53.768C11.2186 53.768 11.4826 53.828 11.7066 53.948C11.9306 54.06 12.0546 54.28 12.0786 54.608H13.6986C13.6666 54.224 13.5666 53.908 13.3986 53.66C13.2386 53.404 13.0346 53.2 12.7866 53.048C12.5386 52.896 12.2546 52.788 11.9346 52.724C11.6226 52.66 11.2986 52.628 10.9626 52.628C10.6266 52.628 10.2986 52.66 9.97863 52.724C9.65863 52.78 9.37063 52.884 9.11463 53.036C8.85863 53.18 8.65063 53.38 8.49063 53.636C8.33863 53.892 8.26263 54.22 8.26263 54.62C8.26263 54.892 8.31863 55.124 8.43063 55.316C8.54263 55.5 8.69063 55.656 8.87463 55.784C9.05863 55.904 9.26663 56.004 9.49863 56.084C9.73863 56.156 9.98263 56.22 10.2306 56.276C10.8386 56.404 11.3106 56.532 11.6466 56.66C11.9906 56.788 12.1626 56.98 12.1626 57.236C12.1626 57.388 12.1266 57.516 12.0546 57.62C11.9826 57.716 11.8906 57.796 11.7786 57.86C11.6746 57.916 11.5546 57.96 11.4186 57.992C11.2906 58.016 11.1666 58.028 11.0466 58.028C10.8786 58.028 10.7146 58.008 10.5546 57.968C10.4026 57.928 10.2666 57.868 10.1466 57.788C10.0266 57.7 9.92663 57.592 9.84663 57.464C9.77463 57.328 9.73863 57.168 9.73863 56.984ZM16.0639 56.984H14.4439C14.4599 57.4 14.5519 57.748 14.7199 58.028C14.8959 58.3 15.1159 58.52 15.3799 58.688C15.6519 58.856 15.9599 58.976 16.3039 59.048C16.6479 59.12 16.9999 59.156 17.3599 59.156C17.7119 59.156 18.0559 59.12 18.3919 59.048C18.7359 58.984 19.0399 58.868 19.3039 58.7C19.5679 58.532 19.7799 58.312 19.9399 58.04C20.1079 57.76 20.1919 57.416 20.1919 57.008C20.1919 56.72 20.1359 56.48 20.0239 56.288C19.9119 56.088 19.7639 55.924 19.5799 55.796C19.3959 55.66 19.1839 55.552 18.9439 55.472C18.7119 55.392 18.4719 55.324 18.2239 55.268C17.9839 55.212 17.7479 55.16 17.5159 55.112C17.2839 55.064 17.0759 55.012 16.8919 54.956C16.7159 54.892 16.5719 54.812 16.4599 54.716C16.3479 54.62 16.2919 54.496 16.2919 54.344C16.2919 54.216 16.3239 54.116 16.3879 54.044C16.4519 53.964 16.5279 53.904 16.6159 53.864C16.7119 53.824 16.8159 53.8 16.9279 53.792C17.0399 53.776 17.1439 53.768 17.2399 53.768C17.5439 53.768 17.8079 53.828 18.0319 53.948C18.2559 54.06 18.3799 54.28 18.4039 54.608H20.0239C19.9919 54.224 19.8919 53.908 19.7239 53.66C19.5639 53.404 19.3599 53.2 19.1119 53.048C18.8639 52.896 18.5799 52.788 18.2599 52.724C17.9479 52.66 17.6239 52.628 17.2879 52.628C16.9519 52.628 16.6239 52.66 16.3039 52.724C15.9839 52.78 15.6959 52.884 15.4399 53.036C15.1839 53.18 14.9759 53.38 14.8159 53.636C14.6639 53.892 14.5879 54.22 14.5879 54.62C14.5879 54.892 14.6439 55.124 14.7559 55.316C14.8679 55.5 15.0159 55.656 15.1999 55.784C15.3839 55.904 15.5919 56.004 15.8239 56.084C16.0639 56.156 16.3079 56.22 16.5559 56.276C17.1639 56.404 17.6359 56.532 17.9719 56.66C18.3159 56.788 18.4879 56.98 18.4879 57.236C18.4879 57.388 18.4519 57.516 18.3799 57.62C18.3079 57.716 18.2159 57.796 18.1039 57.86C17.9999 57.916 17.8799 57.96 17.7439 57.992C17.6159 58.016 17.4919 58.028 17.3719 58.028C17.2039 58.028 17.0399 58.008 16.8799 57.968C16.7279 57.928 16.5919 57.868 16.4719 57.788C16.3519 57.7 16.2519 57.592 16.1719 57.464C16.0999 57.328 16.0639 57.168 16.0639 56.984ZM24.2891 50.432V59H25.9931V55.748C25.9931 55.116 26.0971 54.664 26.3051 54.392C26.5131 54.112 26.8491 53.972 27.3131 53.972C27.7211 53.972 28.0051 54.1 28.1651 54.356C28.3251 54.604 28.4051 54.984 28.4051 55.496V59H30.1091V55.184C30.1091 54.8 30.0731 54.452 30.0011 54.14C29.9371 53.82 29.8211 53.552 29.6531 53.336C29.4851 53.112 29.2531 52.94 28.9571 52.82C28.6691 52.692 28.2971 52.628 27.8411 52.628C27.5211 52.628 27.1931 52.712 26.8571 52.88C26.5211 53.04 26.2451 53.3 26.0291 53.66H25.9931V50.432H24.2891ZM35.4584 55.232H32.6864C32.6944 55.112 32.7184 54.976 32.7584 54.824C32.8064 54.672 32.8824 54.528 32.9864 54.392C33.0984 54.256 33.2424 54.144 33.4184 54.056C33.6024 53.96 33.8304 53.912 34.1024 53.912C34.5184 53.912 34.8264 54.024 35.0264 54.248C35.2344 54.472 35.3784 54.8 35.4584 55.232ZM32.6864 56.312H37.1624C37.1944 55.832 37.1544 55.372 37.0424 54.932C36.9304 54.492 36.7464 54.1 36.4904 53.756C36.2424 53.412 35.9224 53.14 35.5304 52.94C35.1384 52.732 34.6784 52.628 34.1504 52.628C33.6784 52.628 33.2464 52.712 32.8544 52.88C32.4704 53.048 32.1384 53.28 31.8584 53.576C31.5784 53.864 31.3624 54.208 31.2104 54.608C31.0584 55.008 30.9824 55.44 30.9824 55.904C30.9824 56.384 31.0544 56.824 31.1984 57.224C31.3504 57.624 31.5624 57.968 31.8344 58.256C32.1064 58.544 32.4384 58.768 32.8304 58.928C33.2224 59.08 33.6624 59.156 34.1504 59.156C34.8544 59.156 35.4544 58.996 35.9504 58.676C36.4464 58.356 36.8144 57.824 37.0544 57.08H35.5544C35.4984 57.272 35.3464 57.456 35.0984 57.632C34.8504 57.8 34.5544 57.884 34.2104 57.884C33.7304 57.884 33.3624 57.76 33.1064 57.512C32.8504 57.264 32.7104 56.864 32.6864 56.312ZM38.101 50.432V59H39.805V50.432H38.101ZM44.1588 57.884C43.8868 57.884 43.6547 57.828 43.4627 57.716C43.2707 57.604 43.1147 57.46 42.9947 57.284C42.8827 57.1 42.7987 56.888 42.7427 56.648C42.6948 56.408 42.6708 56.164 42.6708 55.916C42.6708 55.66 42.6948 55.412 42.7427 55.172C42.7907 54.932 42.8707 54.72 42.9827 54.536C43.1027 54.352 43.2548 54.204 43.4388 54.092C43.6308 53.972 43.8668 53.912 44.1467 53.912C44.4188 53.912 44.6468 53.972 44.8308 54.092C45.0228 54.204 45.1788 54.356 45.2988 54.548C45.4188 54.732 45.5028 54.944 45.5508 55.184C45.6068 55.424 45.6348 55.668 45.6348 55.916C45.6348 56.164 45.6108 56.408 45.5627 56.648C45.5148 56.888 45.4308 57.1 45.3108 57.284C45.1988 57.46 45.0468 57.604 44.8548 57.716C44.6708 57.828 44.4388 57.884 44.1588 57.884ZM41.0267 52.796V61.172H42.7307V58.232H42.7548C42.9627 58.536 43.2267 58.768 43.5467 58.928C43.8747 59.08 44.2307 59.156 44.6148 59.156C45.0708 59.156 45.4668 59.068 45.8028 58.892C46.1468 58.716 46.4308 58.48 46.6547 58.184C46.8868 57.888 47.0588 57.548 47.1708 57.164C47.2828 56.78 47.3388 56.38 47.3388 55.964C47.3388 55.524 47.2828 55.104 47.1708 54.704C47.0588 54.296 46.8868 53.94 46.6547 53.636C46.4227 53.332 46.1308 53.088 45.7788 52.904C45.4268 52.72 45.0068 52.628 44.5188 52.628C44.1348 52.628 43.7828 52.704 43.4627 52.856C43.1427 53.008 42.8787 53.252 42.6708 53.588H42.6467V52.796H41.0267ZM52.4187 55.232H49.6467C49.6547 55.112 49.6787 54.976 49.7187 54.824C49.7667 54.672 49.8427 54.528 49.9467 54.392C50.0587 54.256 50.2027 54.144 50.3787 54.056C50.5627 53.96 50.7907 53.912 51.0627 53.912C51.4787 53.912 51.7867 54.024 51.9867 54.248C52.1947 54.472 52.3387 54.8 52.4187 55.232ZM49.6467 56.312H54.1227C54.1547 55.832 54.1147 55.372 54.0027 54.932C53.8907 54.492 53.7067 54.1 53.4507 53.756C53.2027 53.412 52.8827 53.14 52.4907 52.94C52.0987 52.732 51.6387 52.628 51.1107 52.628C50.6387 52.628 50.2067 52.712 49.8147 52.88C49.4307 53.048 49.0987 53.28 48.8187 53.576C48.5387 53.864 48.3227 54.208 48.1707 54.608C48.0187 55.008 47.9427 55.44 47.9427 55.904C47.9427 56.384 48.0147 56.824 48.1587 57.224C48.3107 57.624 48.5227 57.968 48.7947 58.256C49.0667 58.544 49.3987 58.768 49.7907 58.928C50.1827 59.08 50.6227 59.156 51.1107 59.156C51.8147 59.156 52.4147 58.996 52.9107 58.676C53.4067 58.356 53.7747 57.824 54.0147 57.08H52.5147C52.4587 57.272 52.3067 57.456 52.0587 57.632C51.8107 57.8 51.5147 57.884 51.1707 57.884C50.6907 57.884 50.3227 57.76 50.0667 57.512C49.8107 57.264 49.6707 56.864 49.6467 56.312ZM55.0133 52.796V59H56.7173V56.204C56.7173 55.924 56.7453 55.664 56.8013 55.424C56.8573 55.184 56.9493 54.976 57.0773 54.8C57.2133 54.616 57.3893 54.472 57.6053 54.368C57.8213 54.264 58.0853 54.212 58.3973 54.212C58.5013 54.212 58.6093 54.22 58.7213 54.236C58.8333 54.244 58.9293 54.256 59.0093 54.272V52.688C58.8733 52.648 58.7493 52.628 58.6373 52.628C58.4213 52.628 58.2133 52.66 58.0133 52.724C57.8133 52.788 57.6253 52.88 57.4493 53C57.2733 53.112 57.1173 53.252 56.9813 53.42C56.8453 53.58 56.7373 53.756 56.6573 53.948H56.6333V52.796H55.0133Z" fill="black"/>
</svg>
