<svg width="70" height="78" viewBox="0 0 70 78" fill="none" xmlns="http://www.w3.org/2000/svg">
<path d="M65.3 25.4995L56.6 30.4995C58.8 34.1995 60 38.4995 60 42.9995C60 56.7995 48.8 67.9995 35 67.9995C21.2 67.9995 10 56.7995 10 42.9995C10 29.6995 20.4 18.7995 33.5 17.9995C33.5 18.9995 33.5 19.9995 33.5 20.9995V23.6995C33.5 25.8995 35.1 26.7995 37 25.6995L42.4 22.5995C44.3 21.4995 47.4 19.6995 49.3 18.5995L54.7 15.4995C56.6 14.3995 56.6 12.5995 54.7 11.4995L49.3 8.39954C47.4 7.29954 44.3 5.49954 42.4 4.39954L37 1.39954C35.1 0.299535 33.5 1.09954 33.5 3.19954C33.5 4.59954 33.5 6.39954 33.5 7.99954C14.9 8.79954 0 24.1995 0 42.9995C0 62.2995 15.7 77.9995 35 77.9995C54.3 77.9995 70 62.2995 70 42.9995C70 36.5995 68.3 30.6995 65.3 25.4995Z" fill="#F65C8C"/>
</svg>
